<svg xmlns="http://www.w3.org/2000/svg" viewBox="0 0 489.142 489.142" style="enable-background:new 0 0 489.142 489.142" xml:space="preserve"><path style="fill:#005ece" d="M489.142 460.858 364.614 336.329a207.576 207.576 0 0 1-28.284 28.284l124.529 124.529 28.283-28.284z"/><path style="fill:#9bfbff" d="M205.743 371.485V40C114.352 40 40 114.352 40 205.743s74.352 165.742 165.743 165.742z"/><path style="fill:#46f8ff" d="M371.485 205.743C371.485 114.352 297.133 40 205.743 40v331.485c91.39 0 165.742-74.352 165.742-165.742z"/><path style="fill:#2488ff" d="M364.614 336.329c29.272-35.548 46.872-81.05 46.872-130.587C411.485 92.296 319.189 0 205.743 0S0 92.296 0 205.743s92.296 205.743 205.743 205.743c49.537 0 95.039-17.6 130.587-46.872a207.64 207.64 0 0 0 28.284-28.285zM205.743 40c91.391 0 165.743 74.352 165.743 165.743s-74.352 165.743-165.743 165.743S40 297.133 40 205.743 114.352 40 205.743 40z"/></svg>